Patient4_TMGait_0pt3_01_right_15_GRF.mot
version=1
nRows=45
nColumns=19
inDegrees=no
endheader
time	F1x	F1y	F1z	M1x	M1y	M1z	F2x	F2y	F2z	M2x	M2y	M2z	EC1x	EC1y	EC1z	EC2x	EC2y	EC2z
26.92	-6.526	839.1764	52.3056	-322.9465	-53.1394	823.8008	-7.1838	-0.75035	1.1684	-0.26045	1.5163	-3.0315	-0.0592	0.0182	-0.0073	-0.0462	0.0165	0.9585
26.9384	-8.1188	858.7229	53.8989	-330.2576	-54.7856	841.4894	-4.8863	-0.037906	0.77809	0.0020589	1.0248	-1.5112	-0.0592	0.0182	-0.0073	-0.0462	0.0165	0.9585
26.9569	-9.3565	878.8621	55.3904	-337.7906	-56.1788	859.0683	-2.9467	0.58484	0.45131	0.23235	0.60743	-0.19381	-0.0592	0.0182	-0.0073	-0.0462	0.0165	0.9585
26.9753	-9.9792	896.5494	56.5534	-344.3965	-57.019	873.5679	-1.4744	1.0809	0.20512	0.41662	0.28885	0.83911	-0.0592	0.0182	-0.0073	-0.0462	0.0165	0.9585
26.9937	-9.8235	908.6364	57.2018	-348.8768	-57.0671	882.0139	-0.46301	1.442	0.039864	0.55134	0.066039	1.5778	-0.0592	0.0182	-0.0073	-0.0462	0.0165	0.9585
27.0121	-8.8277	912.5172	57.2165	-350.2299	-56.1822	882.0338	0.15296	1.6678	-0.056631	0.6362	-0.073373	2.043	-0.0592	0.0182	-0.0073	-0.0462	0.0165	0.9585
27.0306	-7.0276	906.6264	56.555	-347.8447	-54.3375	872.3136	0.46272	1.7551	-0.098997	0.67041	-0.14762	2.2594	-0.0592	0.0182	-0.0073	-0.0462	0.0165	0.9585
27.049	-4.5398	890.7278	55.2571	-341.6142	-51.6197	852.843	0.55497	1.6929	-0.10024	0.65	-0.17726	2.2415	-0.0592	0.0182	-0.0073	-0.0462	0.0165	0.9585
27.0674	-1.5183	865.9945	53.4391	-331.9725	-48.206	824.9389	0.50763	1.4527	-0.070531	0.56459	-0.18371	1.9839	-0.0592	0.0182	-0.0073	-0.0462	0.0165	0.9585
27.0859	1.8803	834.8216	51.2824	-319.8256	-44.3413	791.0178	0.38588	0.99156	-0.015878	0.39769	-0.18757	1.4628	-0.0592	0.0182	-0.0073	-0.0462	0.0165	0.9585
27.1043	5.5184	800.4045	49.0172	-306.3896	-40.3085	754.1796	0.2421	0.25603	0.057178	0.13077	-0.20472	0.64454	-0.0592	0.0182	-0.0073	-0.0462	0.0165	0.9585
27.1227	9.294	766.2371	46.8821	-293	-36.3821	717.7371	0.11863	-0.7906	0.14408	-0.2489	-0.24731	-0.49266	-0.0592	0.0182	-0.0073	-0.0462	0.0165	0.9585
27.1411	13.1319	735.6119	45.085	-280.9204	-32.7906	684.7616	0.050748	-2.1409	0.24172	-0.73826	-0.32319	-1.9347	-0.0592	0.0182	-0.0073	-0.0462	0.0165	0.9585
27.1596	16.9695	711.173	43.7794	-271.1686	-29.7005	657.6724	0.071767	-3.7087	0.34621	-1.3057	-0.436	-3.5893	-0.0592	0.0182	-0.0073	-0.0462	0.0165	0.9585
27.178	20.7556	694.6162	43.0541	-264.3993	-27.2069	637.9829	0.21621	-5.2734	0.45045	-1.8735	-0.58592	-5.2237	-0.0592	0.0182	-0.0073	-0.0462	0.0165	0.9585
27.1964	24.4404	686.5126	42.9413	-260.8372	-25.3512	626.1622	0.51628	-6.4249	0.53805	-2.2971	-0.76459	-6.4013	-0.0592	0.0182	-0.0073	-0.0462	0.0165	0.9585
27.2149	27.9837	686.2639	43.4291	-260.2639	-24.1324	621.6106	0.99802	-6.5092	0.58032	-2.3451	-0.94883	-6.4256	-0.0592	0.0182	-0.0073	-0.0462	0.0165	0.9585
27.2333	31.3636	692.2282	44.4684	-262.0686	-23.5102	622.7924	1.6711	-4.591	0.53381	-1.6843	-1.0933	-4.3021	-0.0592	0.0182	-0.0073	-0.0462	0.0165	0.9585
27.2517	34.5448	701.9807	45.9791	-265.3475	-23.4215	627.5078	2.5083	0.54153	0.33503	0.11997	-1.1196	1.2578	-0.0592	0.0182	-0.0073	-0.0462	0.0165	0.9585
27.2701	37.4693	712.6516	47.8391	-269.0301	-23.7755	633.2014	3.4256	10.2959	-0.09049	3.5738	-0.91471	11.7484	-0.0592	0.0182	-0.0073	-0.0462	0.0165	0.9585
27.2886	40.0826	721.2697	49.8627	-272.0057	-24.4272	637.2627	4.2515	26.078	-0.82048	9.1844	-0.33448	28.6462	-0.0592	0.0182	-0.0073	-0.0462	0.0165	0.9585
27.307	42.3193	725.0249	51.8037	-273.2145	-25.1859	637.2631	4.6919	48.9245	-1.9211	17.3304	0.78729	53.0191	-0.0592	0.0182	-0.0073	-0.0462	0.0165	0.9585
27.3254	44.0528	721.4677	53.396	-271.7227	-25.8673	631.139	4.3092	78.919	-3.4212	28.0543	2.6164	84.9054	-0.0592	0.0182	-0.0073	-0.0462	0.0165	0.9585
27.3439	45.1126	708.7663	54.3751	-266.8227	-26.3124	617.4054	2.666	114.5875	-5.2789	40.8388	5.2399	122.683	-0.0592	0.0182	-0.0073	-0.0462	0.0165	0.9585
27.3623	45.3934	686.1672	54.5253	-258.2109	-26.3853	595.5034	-0.22919	152.9216	-7.5796	54.5873	8.7236	163.1008	-0.0592	0.0182	-0.0073	-0.0462	0.0165	0.9585
27.3807	44.949	654.3577	53.7654	-246.1301	-26.0081	566.0703	-3.8993	190.932	-10.5062	68.1926	13.0684	202.9002	-0.0592	0.0182	-0.0073	-0.0462	0.0165	0.9585
27.3991	43.973	615.3612	52.1906	-231.331	-25.1941	530.8436	-7.8412	228.242	-13.8729	81.5049	17.9098	241.6298	-0.0592	0.0182	-0.0073	-0.0462	0.0165	0.9585
27.4176	42.6851	571.8908	50.0036	-214.8361	-24.0258	492.1261	-11.6229	265.9371	-17.3613	94.9268	22.7892	280.4464	-0.0592	0.0182	-0.0073	-0.0462	0.0165	0.9585
27.436	41.2005	526.6016	47.3756	-197.6599	-22.5878	452.1777	-14.9623	304.6394	-20.6361	108.702	27.2936	320.0522	-0.0592	0.0182	-0.0073	-0.0462	0.0165	0.9585
27.4544	39.5236	481.607	44.4325	-180.6211	-20.9688	412.8	-17.7292	343.9627	-23.4473	122.7048	31.1578	360.1129	-0.0592	0.0182	-0.0073	-0.0462	0.0165	0.9585
27.4729	37.61	438.3038	41.2907	-164.2666	-19.2714	375.176	-19.9188	382.7282	-25.7132	136.5112	34.3286	399.4884	-0.0592	0.0182	-0.0073	-0.0462	0.0165	0.9585
27.4913	35.4215	397.3755	38.0518	-148.8625	-17.5858	339.859	-21.6321	419.4979	-27.4996	149.5958	36.9256	436.7791	-0.0592	0.0182	-0.0073	-0.0462	0.0165	0.9585
27.5097	32.9639	358.9444	34.7875	-134.4482	-15.9675	306.9004	-23.0431	453.1964	-28.9421	161.5653	39.1493	470.9483	-0.0592	0.0182	-0.0073	-0.0462	0.0165	0.9585
27.5281	30.281	322.794	31.5445	-120.9235	-14.439	276.0519	-24.2795	483.4318	-30.1536	172.2828	41.1463	501.6228	-0.0592	0.0182	-0.0073	-0.0462	0.0165	0.9585
27.5466	27.4119	288.5997	28.3552	-108.1419	-13.0089	246.9813	-25.3579	510.4497	-31.1596	181.8499	42.9229	529.0344	-0.0592	0.0182	-0.0073	-0.0462	0.0165	0.9585
27.565	24.3784	256.0732	25.2423	-95.9731	-11.6842	219.3979	-26.226	534.8553	-31.9233	190.4931	44.3835	553.7435	-0.0592	0.0182	-0.0073	-0.0462	0.0165	0.9585
27.5834	21.2111	225.0671	22.2411	-84.3485	-10.4834	193.1385	-26.8049	557.2732	-32.4322	198.4261	45.442	576.3104	-0.0592	0.0182	-0.0073	-0.0462	0.0165	0.9585
27.6019	17.9684	195.6481	19.4126	-73.2894	-9.4403	168.224	-27.0319	578.1233	-32.7612	205.7618	46.1167	597.1027	-0.0592	0.0182	-0.0073	-0.0462	0.0165	0.9585
27.6203	14.7265	168.0401	16.8231	-62.8856	-8.584	144.8069	-26.9203	597.6228	-33.053	212.5209	46.5363	616.3274	-0.0592	0.0182	-0.0073	-0.0462	0.0165	0.9585
27.6387	11.5563	142.3946	14.5052	-53.2054	-7.9139	122.9797	-26.5449	615.8744	-33.4703	218.6761	46.8858	634.114	-0.0592	0.0182	-0.0073	-0.0462	0.0165	0.9585
27.6571	8.4974	118.6276	12.4414	-44.2334	-7.3965	102.6559	-26.0123	632.9089	-34.179	224.1785	47.3738	650.545	-0.0592	0.0182	-0.0073	-0.0462	0.0165	0.9585
27.6756	5.5654	96.5241	10.5788	-35.9051	-6.9775	83.6634	-25.4481	648.7033	-35.3314	228.9708	48.2085	665.6514	-0.0592	0.0182	-0.0073	-0.0462	0.0165	0.9585
27.694	2.8175	75.9731	8.8523	-28.1883	-6.58	65.9351	-24.9693	663.2331	-37.0324	233.0119	49.5511	679.4433	-0.0592	0.0182	-0.0073	-0.0462	0.0165	0.9585
27.7124	0.39106	57.1236	7.2111	-21.1397	-6.113	49.6348	-24.6617	676.5154	-39.3104	236.3014	51.4751	691.9429	-0.0592	0.0182	-0.0073	-0.0462	0.0165	0.9585
27.7309	-1.4933	40.3617	5.6344	-14.8971	-5.483	35.1218	-24.5832	688.6411	-42.0981	238.8982	53.9471	703.2152	-0.0592	0.0182	-0.0073	-0.0462	0.0165	0.9585
